<mxfile host="app.diagrams.net" modified="2023-02-06T09:23:32.960Z" agent="5.0 (Windows NT 10.0; Win64; x64) AppleWebKit/537.36 (KHTML, like Gecko) Chrome/109.0.0.0 Safari/537.36" etag="sRVBwyON3QNAvjKXgHoo" version="20.8.16" type="github">
  <diagram name="Page-1" id="3TTcvZI56lj8rypp1ORK">
    <mxGraphModel dx="268" dy="740" grid="1" gridSize="10" guides="1" tooltips="1" connect="1" arrows="1" fold="1" page="1" pageScale="1" pageWidth="850" pageHeight="1100" math="0" shadow="0">
      <root>
        <mxCell id="0" />
        <mxCell id="1" parent="0" />
        <mxCell id="qc7syrP6Zg2Xi_tFnWjl-10" style="edgeStyle=orthogonalEdgeStyle;rounded=0;orthogonalLoop=1;jettySize=auto;html=1;exitX=0.5;exitY=0;exitDx=0;exitDy=0;entryX=0.5;entryY=1;entryDx=0;entryDy=0;" edge="1" parent="1" source="qc7syrP6Zg2Xi_tFnWjl-1" target="qc7syrP6Zg2Xi_tFnWjl-3">
          <mxGeometry relative="1" as="geometry" />
        </mxCell>
        <mxCell id="qc7syrP6Zg2Xi_tFnWjl-1" value="Node APP" style="rounded=0;whiteSpace=wrap;html=1;" vertex="1" parent="1">
          <mxGeometry x="160" y="360" width="510" height="330" as="geometry" />
        </mxCell>
        <mxCell id="qc7syrP6Zg2Xi_tFnWjl-5" style="edgeStyle=orthogonalEdgeStyle;rounded=0;orthogonalLoop=1;jettySize=auto;html=1;exitX=0;exitY=0.75;exitDx=0;exitDy=0;entryX=0.151;entryY=-0.005;entryDx=0;entryDy=0;entryPerimeter=0;" edge="1" parent="1" source="qc7syrP6Zg2Xi_tFnWjl-3" target="qc7syrP6Zg2Xi_tFnWjl-1">
          <mxGeometry relative="1" as="geometry" />
        </mxCell>
        <mxCell id="qc7syrP6Zg2Xi_tFnWjl-3" value="MongoDB" style="rounded=0;whiteSpace=wrap;html=1;" vertex="1" parent="1">
          <mxGeometry x="510" y="70" width="300" height="180" as="geometry" />
        </mxCell>
        <mxCell id="qc7syrP6Zg2Xi_tFnWjl-11" value="Product Model" style="rounded=0;whiteSpace=wrap;html=1;" vertex="1" parent="1">
          <mxGeometry x="460" y="400" width="150" height="80" as="geometry" />
        </mxCell>
        <mxCell id="qc7syrP6Zg2Xi_tFnWjl-12" value="Product Data" style="rounded=0;whiteSpace=wrap;html=1;" vertex="1" parent="1">
          <mxGeometry x="520" y="80" width="120" height="60" as="geometry" />
        </mxCell>
        <mxCell id="qc7syrP6Zg2Xi_tFnWjl-14" value="Product Model" style="rounded=0;whiteSpace=wrap;html=1;" vertex="1" parent="1">
          <mxGeometry x="160" y="800" width="520" height="240" as="geometry" />
        </mxCell>
        <mxCell id="qc7syrP6Zg2Xi_tFnWjl-15" value="Product Schema" style="rounded=0;whiteSpace=wrap;html=1;" vertex="1" parent="1">
          <mxGeometry x="530" y="820" width="120" height="60" as="geometry" />
        </mxCell>
      </root>
    </mxGraphModel>
  </diagram>
</mxfile>
